%TF.GenerationSoftware,KiCad,Pcbnew,(5.1.9)-1*%
%TF.CreationDate,2021-06-15T19:55:56-04:00*%
%TF.ProjectId,uVU,7556552e-6b69-4636-9164-5f7063625858,rev?*%
%TF.SameCoordinates,Original*%
%TF.FileFunction,Paste,Bot*%
%TF.FilePolarity,Positive*%
%FSLAX46Y46*%
G04 Gerber Fmt 4.6, Leading zero omitted, Abs format (unit mm)*
G04 Created by KiCad (PCBNEW (5.1.9)-1) date 2021-06-15 19:55:56*
%MOMM*%
%LPD*%
G01*
G04 APERTURE LIST*
%ADD10R,1.500000X1.600000*%
%ADD11R,1.200000X1.200000*%
G04 APERTURE END LIST*
%TO.C,R3*%
G36*
G01*
X99039000Y-100056500D02*
X99589000Y-100056500D01*
G75*
G02*
X99789000Y-100256500I0J-200000D01*
G01*
X99789000Y-100656500D01*
G75*
G02*
X99589000Y-100856500I-200000J0D01*
G01*
X99039000Y-100856500D01*
G75*
G02*
X98839000Y-100656500I0J200000D01*
G01*
X98839000Y-100256500D01*
G75*
G02*
X99039000Y-100056500I200000J0D01*
G01*
G37*
G36*
G01*
X99039000Y-98406500D02*
X99589000Y-98406500D01*
G75*
G02*
X99789000Y-98606500I0J-200000D01*
G01*
X99789000Y-99006500D01*
G75*
G02*
X99589000Y-99206500I-200000J0D01*
G01*
X99039000Y-99206500D01*
G75*
G02*
X98839000Y-99006500I0J200000D01*
G01*
X98839000Y-98606500D01*
G75*
G02*
X99039000Y-98406500I200000J0D01*
G01*
G37*
%TD*%
%TO.C,C6*%
G36*
G01*
X100715000Y-99956500D02*
X101215000Y-99956500D01*
G75*
G02*
X101440000Y-100181500I0J-225000D01*
G01*
X101440000Y-100631500D01*
G75*
G02*
X101215000Y-100856500I-225000J0D01*
G01*
X100715000Y-100856500D01*
G75*
G02*
X100490000Y-100631500I0J225000D01*
G01*
X100490000Y-100181500D01*
G75*
G02*
X100715000Y-99956500I225000J0D01*
G01*
G37*
G36*
G01*
X100715000Y-98406500D02*
X101215000Y-98406500D01*
G75*
G02*
X101440000Y-98631500I0J-225000D01*
G01*
X101440000Y-99081500D01*
G75*
G02*
X101215000Y-99306500I-225000J0D01*
G01*
X100715000Y-99306500D01*
G75*
G02*
X100490000Y-99081500I0J225000D01*
G01*
X100490000Y-98631500D01*
G75*
G02*
X100715000Y-98406500I225000J0D01*
G01*
G37*
%TD*%
%TO.C,U1*%
G36*
G01*
X94073000Y-98230000D02*
X94073000Y-98030000D01*
G75*
G02*
X94173000Y-97930000I100000J0D01*
G01*
X95448000Y-97930000D01*
G75*
G02*
X95548000Y-98030000I0J-100000D01*
G01*
X95548000Y-98230000D01*
G75*
G02*
X95448000Y-98330000I-100000J0D01*
G01*
X94173000Y-98330000D01*
G75*
G02*
X94073000Y-98230000I0J100000D01*
G01*
G37*
G36*
G01*
X94073000Y-97580000D02*
X94073000Y-97380000D01*
G75*
G02*
X94173000Y-97280000I100000J0D01*
G01*
X95448000Y-97280000D01*
G75*
G02*
X95548000Y-97380000I0J-100000D01*
G01*
X95548000Y-97580000D01*
G75*
G02*
X95448000Y-97680000I-100000J0D01*
G01*
X94173000Y-97680000D01*
G75*
G02*
X94073000Y-97580000I0J100000D01*
G01*
G37*
G36*
G01*
X94073000Y-96930000D02*
X94073000Y-96730000D01*
G75*
G02*
X94173000Y-96630000I100000J0D01*
G01*
X95448000Y-96630000D01*
G75*
G02*
X95548000Y-96730000I0J-100000D01*
G01*
X95548000Y-96930000D01*
G75*
G02*
X95448000Y-97030000I-100000J0D01*
G01*
X94173000Y-97030000D01*
G75*
G02*
X94073000Y-96930000I0J100000D01*
G01*
G37*
G36*
G01*
X94073000Y-96280000D02*
X94073000Y-96080000D01*
G75*
G02*
X94173000Y-95980000I100000J0D01*
G01*
X95448000Y-95980000D01*
G75*
G02*
X95548000Y-96080000I0J-100000D01*
G01*
X95548000Y-96280000D01*
G75*
G02*
X95448000Y-96380000I-100000J0D01*
G01*
X94173000Y-96380000D01*
G75*
G02*
X94073000Y-96280000I0J100000D01*
G01*
G37*
G36*
G01*
X88348000Y-96280000D02*
X88348000Y-96080000D01*
G75*
G02*
X88448000Y-95980000I100000J0D01*
G01*
X89723000Y-95980000D01*
G75*
G02*
X89823000Y-96080000I0J-100000D01*
G01*
X89823000Y-96280000D01*
G75*
G02*
X89723000Y-96380000I-100000J0D01*
G01*
X88448000Y-96380000D01*
G75*
G02*
X88348000Y-96280000I0J100000D01*
G01*
G37*
G36*
G01*
X88348000Y-96930000D02*
X88348000Y-96730000D01*
G75*
G02*
X88448000Y-96630000I100000J0D01*
G01*
X89723000Y-96630000D01*
G75*
G02*
X89823000Y-96730000I0J-100000D01*
G01*
X89823000Y-96930000D01*
G75*
G02*
X89723000Y-97030000I-100000J0D01*
G01*
X88448000Y-97030000D01*
G75*
G02*
X88348000Y-96930000I0J100000D01*
G01*
G37*
G36*
G01*
X88348000Y-97580000D02*
X88348000Y-97380000D01*
G75*
G02*
X88448000Y-97280000I100000J0D01*
G01*
X89723000Y-97280000D01*
G75*
G02*
X89823000Y-97380000I0J-100000D01*
G01*
X89823000Y-97580000D01*
G75*
G02*
X89723000Y-97680000I-100000J0D01*
G01*
X88448000Y-97680000D01*
G75*
G02*
X88348000Y-97580000I0J100000D01*
G01*
G37*
G36*
G01*
X88348000Y-98230000D02*
X88348000Y-98030000D01*
G75*
G02*
X88448000Y-97930000I100000J0D01*
G01*
X89723000Y-97930000D01*
G75*
G02*
X89823000Y-98030000I0J-100000D01*
G01*
X89823000Y-98230000D01*
G75*
G02*
X89723000Y-98330000I-100000J0D01*
G01*
X88448000Y-98330000D01*
G75*
G02*
X88348000Y-98230000I0J100000D01*
G01*
G37*
%TD*%
D10*
%TO.C,RV2*%
X83005000Y-92964000D03*
D11*
X86255000Y-93964000D03*
X86255000Y-91964000D03*
%TD*%
D10*
%TO.C,RV1*%
X86106000Y-97155000D03*
D11*
X82856000Y-96155000D03*
X82856000Y-98155000D03*
%TD*%
%TO.C,R4*%
G36*
G01*
X79712000Y-91673000D02*
X79712000Y-92223000D01*
G75*
G02*
X79512000Y-92423000I-200000J0D01*
G01*
X79112000Y-92423000D01*
G75*
G02*
X78912000Y-92223000I0J200000D01*
G01*
X78912000Y-91673000D01*
G75*
G02*
X79112000Y-91473000I200000J0D01*
G01*
X79512000Y-91473000D01*
G75*
G02*
X79712000Y-91673000I0J-200000D01*
G01*
G37*
G36*
G01*
X81362000Y-91673000D02*
X81362000Y-92223000D01*
G75*
G02*
X81162000Y-92423000I-200000J0D01*
G01*
X80762000Y-92423000D01*
G75*
G02*
X80562000Y-92223000I0J200000D01*
G01*
X80562000Y-91673000D01*
G75*
G02*
X80762000Y-91473000I200000J0D01*
G01*
X81162000Y-91473000D01*
G75*
G02*
X81362000Y-91673000I0J-200000D01*
G01*
G37*
%TD*%
%TO.C,R2*%
G36*
G01*
X101517000Y-96414000D02*
X101517000Y-95864000D01*
G75*
G02*
X101717000Y-95664000I200000J0D01*
G01*
X102117000Y-95664000D01*
G75*
G02*
X102317000Y-95864000I0J-200000D01*
G01*
X102317000Y-96414000D01*
G75*
G02*
X102117000Y-96614000I-200000J0D01*
G01*
X101717000Y-96614000D01*
G75*
G02*
X101517000Y-96414000I0J200000D01*
G01*
G37*
G36*
G01*
X99867000Y-96414000D02*
X99867000Y-95864000D01*
G75*
G02*
X100067000Y-95664000I200000J0D01*
G01*
X100467000Y-95664000D01*
G75*
G02*
X100667000Y-95864000I0J-200000D01*
G01*
X100667000Y-96414000D01*
G75*
G02*
X100467000Y-96614000I-200000J0D01*
G01*
X100067000Y-96614000D01*
G75*
G02*
X99867000Y-96414000I0J200000D01*
G01*
G37*
%TD*%
%TO.C,R1*%
G36*
G01*
X77322000Y-94532000D02*
X77872000Y-94532000D01*
G75*
G02*
X78072000Y-94732000I0J-200000D01*
G01*
X78072000Y-95132000D01*
G75*
G02*
X77872000Y-95332000I-200000J0D01*
G01*
X77322000Y-95332000D01*
G75*
G02*
X77122000Y-95132000I0J200000D01*
G01*
X77122000Y-94732000D01*
G75*
G02*
X77322000Y-94532000I200000J0D01*
G01*
G37*
G36*
G01*
X77322000Y-92882000D02*
X77872000Y-92882000D01*
G75*
G02*
X78072000Y-93082000I0J-200000D01*
G01*
X78072000Y-93482000D01*
G75*
G02*
X77872000Y-93682000I-200000J0D01*
G01*
X77322000Y-93682000D01*
G75*
G02*
X77122000Y-93482000I0J200000D01*
G01*
X77122000Y-93082000D01*
G75*
G02*
X77322000Y-92882000I200000J0D01*
G01*
G37*
%TD*%
%TO.C,C4*%
G36*
G01*
X98737000Y-96389000D02*
X98737000Y-95889000D01*
G75*
G02*
X98962000Y-95664000I225000J0D01*
G01*
X99412000Y-95664000D01*
G75*
G02*
X99637000Y-95889000I0J-225000D01*
G01*
X99637000Y-96389000D01*
G75*
G02*
X99412000Y-96614000I-225000J0D01*
G01*
X98962000Y-96614000D01*
G75*
G02*
X98737000Y-96389000I0J225000D01*
G01*
G37*
G36*
G01*
X97187000Y-96389000D02*
X97187000Y-95889000D01*
G75*
G02*
X97412000Y-95664000I225000J0D01*
G01*
X97862000Y-95664000D01*
G75*
G02*
X98087000Y-95889000I0J-225000D01*
G01*
X98087000Y-96389000D01*
G75*
G02*
X97862000Y-96614000I-225000J0D01*
G01*
X97412000Y-96614000D01*
G75*
G02*
X97187000Y-96389000I0J225000D01*
G01*
G37*
%TD*%
M02*
