%TF.GenerationSoftware,KiCad,Pcbnew,(5.1.9)-1*%
%TF.CreationDate,2021-06-15T19:55:56-04:00*%
%TF.ProjectId,uVU,7556552e-6b69-4636-9164-5f7063625858,rev?*%
%TF.SameCoordinates,Original*%
%TF.FileFunction,Soldermask,Top*%
%TF.FilePolarity,Negative*%
%FSLAX46Y46*%
G04 Gerber Fmt 4.6, Leading zero omitted, Abs format (unit mm)*
G04 Created by KiCad (PCBNEW (5.1.9)-1) date 2021-06-15 19:55:56*
%MOMM*%
%LPD*%
G01*
G04 APERTURE LIST*
%ADD10O,1.600000X1.600000*%
%ADD11R,1.600000X1.600000*%
%ADD12C,1.524000*%
%ADD13O,1.700000X1.700000*%
%ADD14R,1.700000X1.700000*%
%ADD15C,2.200000*%
G04 APERTURE END LIST*
D10*
%TO.C,U2*%
X98552000Y-82042000D03*
X78232000Y-89662000D03*
X96012000Y-82042000D03*
X80772000Y-89662000D03*
X93472000Y-82042000D03*
X83312000Y-89662000D03*
X90932000Y-82042000D03*
X85852000Y-89662000D03*
X88392000Y-82042000D03*
X88392000Y-89662000D03*
X85852000Y-82042000D03*
X90932000Y-89662000D03*
X83312000Y-82042000D03*
X93472000Y-89662000D03*
X80772000Y-82042000D03*
X96012000Y-89662000D03*
X78232000Y-82042000D03*
D11*
X98552000Y-89662000D03*
%TD*%
D12*
%TO.C,MIC*%
X79915000Y-94889000D03*
X79915000Y-97389000D03*
%TD*%
D13*
%TO.C,J1*%
X88392000Y-72263000D03*
D14*
X90932000Y-72263000D03*
%TD*%
D15*
%TO.C,H2*%
X100584000Y-72390000D03*
%TD*%
%TO.C,H1*%
X78740000Y-72390000D03*
%TD*%
D10*
%TO.C,D1*%
X78232000Y-77216000D03*
X78232000Y-87376000D03*
X80772000Y-77216000D03*
X80772000Y-87376000D03*
X101092000Y-87376000D03*
X83312000Y-77216000D03*
X98552000Y-87376000D03*
X85852000Y-77216000D03*
X96012000Y-87376000D03*
X88392000Y-77216000D03*
X93472000Y-87376000D03*
X90932000Y-77216000D03*
X90932000Y-87376000D03*
X93472000Y-77216000D03*
X88392000Y-87376000D03*
X96012000Y-77216000D03*
X85852000Y-87376000D03*
X98552000Y-77216000D03*
X83312000Y-87376000D03*
D11*
X101092000Y-77216000D03*
%TD*%
%TO.C,C5*%
G36*
G01*
X99179000Y-99356000D02*
X99179000Y-98256000D01*
G75*
G02*
X99429000Y-98006000I250000J0D01*
G01*
X101529000Y-98006000D01*
G75*
G02*
X101779000Y-98256000I0J-250000D01*
G01*
X101779000Y-99356000D01*
G75*
G02*
X101529000Y-99606000I-250000J0D01*
G01*
X99429000Y-99606000D01*
G75*
G02*
X99179000Y-99356000I0J250000D01*
G01*
G37*
G36*
G01*
X95579000Y-99356000D02*
X95579000Y-98256000D01*
G75*
G02*
X95829000Y-98006000I250000J0D01*
G01*
X97929000Y-98006000D01*
G75*
G02*
X98179000Y-98256000I0J-250000D01*
G01*
X98179000Y-99356000D01*
G75*
G02*
X97929000Y-99606000I-250000J0D01*
G01*
X95829000Y-99606000D01*
G75*
G02*
X95579000Y-99356000I0J250000D01*
G01*
G37*
%TD*%
%TO.C,C3*%
G36*
G01*
X91686000Y-99356000D02*
X91686000Y-98256000D01*
G75*
G02*
X91936000Y-98006000I250000J0D01*
G01*
X94036000Y-98006000D01*
G75*
G02*
X94286000Y-98256000I0J-250000D01*
G01*
X94286000Y-99356000D01*
G75*
G02*
X94036000Y-99606000I-250000J0D01*
G01*
X91936000Y-99606000D01*
G75*
G02*
X91686000Y-99356000I0J250000D01*
G01*
G37*
G36*
G01*
X88086000Y-99356000D02*
X88086000Y-98256000D01*
G75*
G02*
X88336000Y-98006000I250000J0D01*
G01*
X90436000Y-98006000D01*
G75*
G02*
X90686000Y-98256000I0J-250000D01*
G01*
X90686000Y-99356000D01*
G75*
G02*
X90436000Y-99606000I-250000J0D01*
G01*
X88336000Y-99606000D01*
G75*
G02*
X88086000Y-99356000I0J250000D01*
G01*
G37*
%TD*%
%TO.C,C2*%
G36*
G01*
X99179000Y-94276000D02*
X99179000Y-93176000D01*
G75*
G02*
X99429000Y-92926000I250000J0D01*
G01*
X101529000Y-92926000D01*
G75*
G02*
X101779000Y-93176000I0J-250000D01*
G01*
X101779000Y-94276000D01*
G75*
G02*
X101529000Y-94526000I-250000J0D01*
G01*
X99429000Y-94526000D01*
G75*
G02*
X99179000Y-94276000I0J250000D01*
G01*
G37*
G36*
G01*
X95579000Y-94276000D02*
X95579000Y-93176000D01*
G75*
G02*
X95829000Y-92926000I250000J0D01*
G01*
X97929000Y-92926000D01*
G75*
G02*
X98179000Y-93176000I0J-250000D01*
G01*
X98179000Y-94276000D01*
G75*
G02*
X97929000Y-94526000I-250000J0D01*
G01*
X95829000Y-94526000D01*
G75*
G02*
X95579000Y-94276000I0J250000D01*
G01*
G37*
%TD*%
%TO.C,C1*%
G36*
G01*
X91686000Y-94276000D02*
X91686000Y-93176000D01*
G75*
G02*
X91936000Y-92926000I250000J0D01*
G01*
X94036000Y-92926000D01*
G75*
G02*
X94286000Y-93176000I0J-250000D01*
G01*
X94286000Y-94276000D01*
G75*
G02*
X94036000Y-94526000I-250000J0D01*
G01*
X91936000Y-94526000D01*
G75*
G02*
X91686000Y-94276000I0J250000D01*
G01*
G37*
G36*
G01*
X88086000Y-94276000D02*
X88086000Y-93176000D01*
G75*
G02*
X88336000Y-92926000I250000J0D01*
G01*
X90436000Y-92926000D01*
G75*
G02*
X90686000Y-93176000I0J-250000D01*
G01*
X90686000Y-94276000D01*
G75*
G02*
X90436000Y-94526000I-250000J0D01*
G01*
X88336000Y-94526000D01*
G75*
G02*
X88086000Y-94276000I0J250000D01*
G01*
G37*
%TD*%
M02*
