%TF.GenerationSoftware,KiCad,Pcbnew,(5.1.9)-1*%
%TF.CreationDate,2021-06-15T19:55:56-04:00*%
%TF.ProjectId,uVU,7556552e-6b69-4636-9164-5f7063625858,rev?*%
%TF.SameCoordinates,Original*%
%TF.FileFunction,Legend,Top*%
%TF.FilePolarity,Positive*%
%FSLAX46Y46*%
G04 Gerber Fmt 4.6, Leading zero omitted, Abs format (unit mm)*
G04 Created by KiCad (PCBNEW (5.1.9)-1) date 2021-06-15 19:55:56*
%MOMM*%
%LPD*%
G01*
G04 APERTURE LIST*
%ADD10C,0.203200*%
%ADD11C,0.300000*%
%ADD12C,0.120000*%
%ADD13C,0.150000*%
G04 APERTURE END LIST*
D10*
X81851500Y-74558071D02*
X82504642Y-74558071D01*
X82178071Y-75701071D02*
X82178071Y-74558071D01*
X83266642Y-75102357D02*
X83429928Y-75156785D01*
X83484357Y-75211214D01*
X83538785Y-75320071D01*
X83538785Y-75483357D01*
X83484357Y-75592214D01*
X83429928Y-75646642D01*
X83321071Y-75701071D01*
X82885642Y-75701071D01*
X82885642Y-74558071D01*
X83266642Y-74558071D01*
X83375500Y-74612500D01*
X83429928Y-74666928D01*
X83484357Y-74775785D01*
X83484357Y-74884642D01*
X83429928Y-74993500D01*
X83375500Y-75047928D01*
X83266642Y-75102357D01*
X82885642Y-75102357D01*
X85389357Y-74558071D02*
X85171642Y-74558071D01*
X85062785Y-74612500D01*
X85008357Y-74666928D01*
X84899500Y-74830214D01*
X84845071Y-75047928D01*
X84845071Y-75483357D01*
X84899500Y-75592214D01*
X84953928Y-75646642D01*
X85062785Y-75701071D01*
X85280500Y-75701071D01*
X85389357Y-75646642D01*
X85443785Y-75592214D01*
X85498214Y-75483357D01*
X85498214Y-75211214D01*
X85443785Y-75102357D01*
X85389357Y-75047928D01*
X85280500Y-74993500D01*
X85062785Y-74993500D01*
X84953928Y-75047928D01*
X84899500Y-75102357D01*
X84845071Y-75211214D01*
X85988071Y-75592214D02*
X86042500Y-75646642D01*
X85988071Y-75701071D01*
X85933642Y-75646642D01*
X85988071Y-75592214D01*
X85988071Y-75701071D01*
X86477928Y-74666928D02*
X86532357Y-74612500D01*
X86641214Y-74558071D01*
X86913357Y-74558071D01*
X87022214Y-74612500D01*
X87076642Y-74666928D01*
X87131071Y-74775785D01*
X87131071Y-74884642D01*
X87076642Y-75047928D01*
X86423500Y-75701071D01*
X87131071Y-75701071D01*
X88219642Y-75701071D02*
X87566500Y-75701071D01*
X87893071Y-75701071D02*
X87893071Y-74558071D01*
X87784214Y-74721357D01*
X87675357Y-74830214D01*
X87566500Y-74884642D01*
D11*
X82185785Y-72068571D02*
X81998285Y-73568571D01*
X82801857Y-72854285D02*
X82855428Y-72997142D01*
X82989357Y-73068571D01*
X82087571Y-72854285D02*
X82141142Y-72997142D01*
X82275071Y-73068571D01*
X82560785Y-73068571D01*
X82712571Y-72997142D01*
X82801857Y-72854285D01*
X82900071Y-72068571D01*
X83605428Y-71568571D02*
X83917928Y-73068571D01*
X84605428Y-71568571D01*
X85105428Y-71568571D02*
X84953642Y-72782857D01*
X85007214Y-72925714D01*
X85069714Y-72997142D01*
X85203642Y-73068571D01*
X85489357Y-73068571D01*
X85641142Y-72997142D01*
X85721500Y-72925714D01*
X85810785Y-72782857D01*
X85962571Y-71568571D01*
D12*
%TO.C,MIC*%
X86765000Y-96139000D02*
G75*
G03*
X86765000Y-96139000I-4850000J0D01*
G01*
%TO.C,C5*%
X95929000Y-96996000D02*
X95929000Y-97496000D01*
X95679000Y-97246000D02*
X96179000Y-97246000D01*
X96419000Y-100001563D02*
X97483437Y-101066000D01*
X96419000Y-97610437D02*
X97483437Y-96546000D01*
X96419000Y-97610437D02*
X96419000Y-97746000D01*
X96419000Y-100001563D02*
X96419000Y-99866000D01*
X97483437Y-101066000D02*
X100939000Y-101066000D01*
X97483437Y-96546000D02*
X100939000Y-96546000D01*
X100939000Y-96546000D02*
X100939000Y-97746000D01*
X100939000Y-101066000D02*
X100939000Y-99866000D01*
%TO.C,C3*%
X88436000Y-96996000D02*
X88436000Y-97496000D01*
X88186000Y-97246000D02*
X88686000Y-97246000D01*
X88926000Y-100001563D02*
X89990437Y-101066000D01*
X88926000Y-97610437D02*
X89990437Y-96546000D01*
X88926000Y-97610437D02*
X88926000Y-97746000D01*
X88926000Y-100001563D02*
X88926000Y-99866000D01*
X89990437Y-101066000D02*
X93446000Y-101066000D01*
X89990437Y-96546000D02*
X93446000Y-96546000D01*
X93446000Y-96546000D02*
X93446000Y-97746000D01*
X93446000Y-101066000D02*
X93446000Y-99866000D01*
%TO.C,C2*%
X95929000Y-91916000D02*
X95929000Y-92416000D01*
X95679000Y-92166000D02*
X96179000Y-92166000D01*
X96419000Y-94921563D02*
X97483437Y-95986000D01*
X96419000Y-92530437D02*
X97483437Y-91466000D01*
X96419000Y-92530437D02*
X96419000Y-92666000D01*
X96419000Y-94921563D02*
X96419000Y-94786000D01*
X97483437Y-95986000D02*
X100939000Y-95986000D01*
X97483437Y-91466000D02*
X100939000Y-91466000D01*
X100939000Y-91466000D02*
X100939000Y-92666000D01*
X100939000Y-95986000D02*
X100939000Y-94786000D01*
%TO.C,C1*%
X88436000Y-91916000D02*
X88436000Y-92416000D01*
X88186000Y-92166000D02*
X88686000Y-92166000D01*
X88926000Y-94921563D02*
X89990437Y-95986000D01*
X88926000Y-92530437D02*
X89990437Y-91466000D01*
X88926000Y-92530437D02*
X88926000Y-92666000D01*
X88926000Y-94921563D02*
X88926000Y-94786000D01*
X89990437Y-95986000D02*
X93446000Y-95986000D01*
X89990437Y-91466000D02*
X93446000Y-91466000D01*
X93446000Y-91466000D02*
X93446000Y-92666000D01*
X93446000Y-95986000D02*
X93446000Y-94786000D01*
%TO.C,MIC*%
D13*
X76652571Y-101290380D02*
X76652571Y-100290380D01*
X76985904Y-101004666D01*
X77319238Y-100290380D01*
X77319238Y-101290380D01*
X77795428Y-101290380D02*
X77795428Y-100290380D01*
X78843047Y-101195142D02*
X78795428Y-101242761D01*
X78652571Y-101290380D01*
X78557333Y-101290380D01*
X78414476Y-101242761D01*
X78319238Y-101147523D01*
X78271619Y-101052285D01*
X78224000Y-100861809D01*
X78224000Y-100718952D01*
X78271619Y-100528476D01*
X78319238Y-100433238D01*
X78414476Y-100338000D01*
X78557333Y-100290380D01*
X78652571Y-100290380D01*
X78795428Y-100338000D01*
X78843047Y-100385619D01*
%TO.C,C5*%
X101941333Y-97385142D02*
X101893714Y-97432761D01*
X101750857Y-97480380D01*
X101655619Y-97480380D01*
X101512761Y-97432761D01*
X101417523Y-97337523D01*
X101369904Y-97242285D01*
X101322285Y-97051809D01*
X101322285Y-96908952D01*
X101369904Y-96718476D01*
X101417523Y-96623238D01*
X101512761Y-96528000D01*
X101655619Y-96480380D01*
X101750857Y-96480380D01*
X101893714Y-96528000D01*
X101941333Y-96575619D01*
X102846095Y-96480380D02*
X102369904Y-96480380D01*
X102322285Y-96956571D01*
X102369904Y-96908952D01*
X102465142Y-96861333D01*
X102703238Y-96861333D01*
X102798476Y-96908952D01*
X102846095Y-96956571D01*
X102893714Y-97051809D01*
X102893714Y-97289904D01*
X102846095Y-97385142D01*
X102798476Y-97432761D01*
X102703238Y-97480380D01*
X102465142Y-97480380D01*
X102369904Y-97432761D01*
X102322285Y-97385142D01*
%TO.C,C3*%
X94321333Y-97385142D02*
X94273714Y-97432761D01*
X94130857Y-97480380D01*
X94035619Y-97480380D01*
X93892761Y-97432761D01*
X93797523Y-97337523D01*
X93749904Y-97242285D01*
X93702285Y-97051809D01*
X93702285Y-96908952D01*
X93749904Y-96718476D01*
X93797523Y-96623238D01*
X93892761Y-96528000D01*
X94035619Y-96480380D01*
X94130857Y-96480380D01*
X94273714Y-96528000D01*
X94321333Y-96575619D01*
X94654666Y-96480380D02*
X95273714Y-96480380D01*
X94940380Y-96861333D01*
X95083238Y-96861333D01*
X95178476Y-96908952D01*
X95226095Y-96956571D01*
X95273714Y-97051809D01*
X95273714Y-97289904D01*
X95226095Y-97385142D01*
X95178476Y-97432761D01*
X95083238Y-97480380D01*
X94797523Y-97480380D01*
X94702285Y-97432761D01*
X94654666Y-97385142D01*
%TO.C,C2*%
X101941333Y-92305142D02*
X101893714Y-92352761D01*
X101750857Y-92400380D01*
X101655619Y-92400380D01*
X101512761Y-92352761D01*
X101417523Y-92257523D01*
X101369904Y-92162285D01*
X101322285Y-91971809D01*
X101322285Y-91828952D01*
X101369904Y-91638476D01*
X101417523Y-91543238D01*
X101512761Y-91448000D01*
X101655619Y-91400380D01*
X101750857Y-91400380D01*
X101893714Y-91448000D01*
X101941333Y-91495619D01*
X102322285Y-91495619D02*
X102369904Y-91448000D01*
X102465142Y-91400380D01*
X102703238Y-91400380D01*
X102798476Y-91448000D01*
X102846095Y-91495619D01*
X102893714Y-91590857D01*
X102893714Y-91686095D01*
X102846095Y-91828952D01*
X102274666Y-92400380D01*
X102893714Y-92400380D01*
%TO.C,C1*%
X94321333Y-92305142D02*
X94273714Y-92352761D01*
X94130857Y-92400380D01*
X94035619Y-92400380D01*
X93892761Y-92352761D01*
X93797523Y-92257523D01*
X93749904Y-92162285D01*
X93702285Y-91971809D01*
X93702285Y-91828952D01*
X93749904Y-91638476D01*
X93797523Y-91543238D01*
X93892761Y-91448000D01*
X94035619Y-91400380D01*
X94130857Y-91400380D01*
X94273714Y-91448000D01*
X94321333Y-91495619D01*
X95273714Y-92400380D02*
X94702285Y-92400380D01*
X94988000Y-92400380D02*
X94988000Y-91400380D01*
X94892761Y-91543238D01*
X94797523Y-91638476D01*
X94702285Y-91686095D01*
%TD*%
M02*
