M48
; DRILL file {KiCad (5.1.9)-1} date 06/15/21 19:55:58
; FORMAT={-:-/ absolute / inch / decimal}
; #@! TF.CreationDate,2021-06-15T19:55:58-04:00
; #@! TF.GenerationSoftware,Kicad,Pcbnew,(5.1.9)-1
; #@! TF.FileFunction,Plated,1,2,PTH
FMAT,2
INCH
T1C0.0150
T2C0.0300
T3C0.0315
T4C0.0394
%
G90
G05
T1
X3.3312Y-3.7012
X3.39Y-3.78
X3.455Y-3.89
X3.5975Y-3.69
X3.6825Y-3.8375
X3.725Y-3.89
X3.8141Y-3.8459
X4.0175Y-3.89
X4.02Y-3.69
T2
X3.1463Y-3.7358
X3.1463Y-3.8342
T3
X3.08Y-3.04
X3.08Y-3.23
X3.08Y-3.44
X3.08Y-3.53
X3.18Y-3.04
X3.18Y-3.23
X3.18Y-3.44
X3.18Y-3.53
X3.28Y-3.04
X3.28Y-3.23
X3.28Y-3.44
X3.28Y-3.53
X3.38Y-3.04
X3.38Y-3.23
X3.38Y-3.44
X3.38Y-3.53
X3.48Y-3.04
X3.48Y-3.23
X3.48Y-3.44
X3.48Y-3.53
X3.58Y-3.04
X3.58Y-3.23
X3.58Y-3.44
X3.58Y-3.53
X3.68Y-3.04
X3.68Y-3.23
X3.68Y-3.44
X3.68Y-3.53
X3.78Y-3.04
X3.78Y-3.23
X3.78Y-3.44
X3.78Y-3.53
X3.88Y-3.04
X3.88Y-3.23
X3.88Y-3.44
X3.88Y-3.53
X3.98Y-3.04
X3.98Y-3.44
T4
X3.48Y-2.845
X3.58Y-2.845
T0
M30
