%TF.GenerationSoftware,KiCad,Pcbnew,(5.1.9)-1*%
%TF.CreationDate,2021-06-15T19:55:56-04:00*%
%TF.ProjectId,uVU,7556552e-6b69-4636-9164-5f7063625858,rev?*%
%TF.SameCoordinates,Original*%
%TF.FileFunction,Copper,L2,Bot*%
%TF.FilePolarity,Positive*%
%FSLAX46Y46*%
G04 Gerber Fmt 4.6, Leading zero omitted, Abs format (unit mm)*
G04 Created by KiCad (PCBNEW (5.1.9)-1) date 2021-06-15 19:55:56*
%MOMM*%
%LPD*%
G01*
G04 APERTURE LIST*
%TA.AperFunction,NonConductor*%
%ADD10C,0.300000*%
%TD*%
%TA.AperFunction,ComponentPad*%
%ADD11O,1.600000X1.600000*%
%TD*%
%TA.AperFunction,ComponentPad*%
%ADD12R,1.600000X1.600000*%
%TD*%
%TA.AperFunction,SMDPad,CuDef*%
%ADD13R,1.500000X1.600000*%
%TD*%
%TA.AperFunction,SMDPad,CuDef*%
%ADD14R,1.200000X1.200000*%
%TD*%
%TA.AperFunction,ComponentPad*%
%ADD15C,1.524000*%
%TD*%
%TA.AperFunction,ComponentPad*%
%ADD16O,1.700000X1.700000*%
%TD*%
%TA.AperFunction,ComponentPad*%
%ADD17R,1.700000X1.700000*%
%TD*%
%TA.AperFunction,ViaPad*%
%ADD18C,0.762000*%
%TD*%
%TA.AperFunction,Conductor*%
%ADD19C,0.254000*%
%TD*%
%TA.AperFunction,Conductor*%
%ADD20C,0.250000*%
%TD*%
G04 APERTURE END LIST*
D10*
X95027714Y-71568571D02*
X95742000Y-71568571D01*
X95813428Y-72282857D01*
X95742000Y-72211428D01*
X95599142Y-72140000D01*
X95242000Y-72140000D01*
X95099142Y-72211428D01*
X95027714Y-72282857D01*
X94956285Y-72425714D01*
X94956285Y-72782857D01*
X95027714Y-72925714D01*
X95099142Y-72997142D01*
X95242000Y-73068571D01*
X95599142Y-73068571D01*
X95742000Y-72997142D01*
X95813428Y-72925714D01*
X94527714Y-71568571D02*
X94027714Y-73068571D01*
X93527714Y-71568571D01*
X85216857Y-71640000D02*
X85359714Y-71568571D01*
X85574000Y-71568571D01*
X85788285Y-71640000D01*
X85931142Y-71782857D01*
X86002571Y-71925714D01*
X86074000Y-72211428D01*
X86074000Y-72425714D01*
X86002571Y-72711428D01*
X85931142Y-72854285D01*
X85788285Y-72997142D01*
X85574000Y-73068571D01*
X85431142Y-73068571D01*
X85216857Y-72997142D01*
X85145428Y-72925714D01*
X85145428Y-72425714D01*
X85431142Y-72425714D01*
X84502571Y-73068571D02*
X84502571Y-71568571D01*
X83645428Y-73068571D01*
X83645428Y-71568571D01*
X82931142Y-73068571D02*
X82931142Y-71568571D01*
X82574000Y-71568571D01*
X82359714Y-71640000D01*
X82216857Y-71782857D01*
X82145428Y-71925714D01*
X82074000Y-72211428D01*
X82074000Y-72425714D01*
X82145428Y-72711428D01*
X82216857Y-72854285D01*
X82359714Y-72997142D01*
X82574000Y-73068571D01*
X82931142Y-73068571D01*
%TO.P,R3,2*%
%TO.N,GND*%
%TA.AperFunction,SMDPad,CuDef*%
G36*
G01*
X99039000Y-100056500D02*
X99589000Y-100056500D01*
G75*
G02*
X99789000Y-100256500I0J-200000D01*
G01*
X99789000Y-100656500D01*
G75*
G02*
X99589000Y-100856500I-200000J0D01*
G01*
X99039000Y-100856500D01*
G75*
G02*
X98839000Y-100656500I0J200000D01*
G01*
X98839000Y-100256500D01*
G75*
G02*
X99039000Y-100056500I200000J0D01*
G01*
G37*
%TD.AperFunction*%
%TO.P,R3,1*%
%TO.N,/Vsig*%
%TA.AperFunction,SMDPad,CuDef*%
G36*
G01*
X99039000Y-98406500D02*
X99589000Y-98406500D01*
G75*
G02*
X99789000Y-98606500I0J-200000D01*
G01*
X99789000Y-99006500D01*
G75*
G02*
X99589000Y-99206500I-200000J0D01*
G01*
X99039000Y-99206500D01*
G75*
G02*
X98839000Y-99006500I0J200000D01*
G01*
X98839000Y-98606500D01*
G75*
G02*
X99039000Y-98406500I200000J0D01*
G01*
G37*
%TD.AperFunction*%
%TD*%
%TO.P,C6,2*%
%TO.N,GND*%
%TA.AperFunction,SMDPad,CuDef*%
G36*
G01*
X100715000Y-99956500D02*
X101215000Y-99956500D01*
G75*
G02*
X101440000Y-100181500I0J-225000D01*
G01*
X101440000Y-100631500D01*
G75*
G02*
X101215000Y-100856500I-225000J0D01*
G01*
X100715000Y-100856500D01*
G75*
G02*
X100490000Y-100631500I0J225000D01*
G01*
X100490000Y-100181500D01*
G75*
G02*
X100715000Y-99956500I225000J0D01*
G01*
G37*
%TD.AperFunction*%
%TO.P,C6,1*%
%TO.N,/Vsig*%
%TA.AperFunction,SMDPad,CuDef*%
G36*
G01*
X100715000Y-98406500D02*
X101215000Y-98406500D01*
G75*
G02*
X101440000Y-98631500I0J-225000D01*
G01*
X101440000Y-99081500D01*
G75*
G02*
X101215000Y-99306500I-225000J0D01*
G01*
X100715000Y-99306500D01*
G75*
G02*
X100490000Y-99081500I0J225000D01*
G01*
X100490000Y-98631500D01*
G75*
G02*
X100715000Y-98406500I225000J0D01*
G01*
G37*
%TD.AperFunction*%
%TD*%
D11*
%TO.P,U2,18*%
%TO.N,Net-(D1-Pad19)*%
X98552000Y-82042000D03*
%TO.P,U2,9*%
%TO.N,+5V*%
X78232000Y-89662000D03*
%TO.P,U2,17*%
%TO.N,Net-(D1-Pad18)*%
X96012000Y-82042000D03*
%TO.P,U2,8*%
%TO.N,GND*%
X80772000Y-89662000D03*
%TO.P,U2,16*%
%TO.N,Net-(D1-Pad17)*%
X93472000Y-82042000D03*
%TO.P,U2,7*%
%TO.N,Net-(R4-Pad1)*%
X83312000Y-89662000D03*
%TO.P,U2,15*%
%TO.N,Net-(D1-Pad16)*%
X90932000Y-82042000D03*
%TO.P,U2,6*%
%TO.N,Net-(R4-Pad1)*%
X85852000Y-89662000D03*
%TO.P,U2,14*%
%TO.N,Net-(D1-Pad15)*%
X88392000Y-82042000D03*
%TO.P,U2,5*%
%TO.N,/Vsig*%
X88392000Y-89662000D03*
%TO.P,U2,13*%
%TO.N,Net-(D1-Pad14)*%
X85852000Y-82042000D03*
%TO.P,U2,4*%
%TO.N,GND*%
X90932000Y-89662000D03*
%TO.P,U2,12*%
%TO.N,Net-(D1-Pad13)*%
X83312000Y-82042000D03*
%TO.P,U2,3*%
%TO.N,+5V*%
X93472000Y-89662000D03*
%TO.P,U2,11*%
%TO.N,Net-(D1-Pad12)*%
X80772000Y-82042000D03*
%TO.P,U2,2*%
%TO.N,GND*%
X96012000Y-89662000D03*
%TO.P,U2,10*%
%TO.N,Net-(D1-Pad11)*%
X78232000Y-82042000D03*
D12*
%TO.P,U2,1*%
%TO.N,Net-(D1-Pad20)*%
X98552000Y-89662000D03*
%TD*%
%TO.P,U1,8*%
%TO.N,Net-(C3-Pad2)*%
%TA.AperFunction,SMDPad,CuDef*%
G36*
G01*
X94073000Y-98230000D02*
X94073000Y-98030000D01*
G75*
G02*
X94173000Y-97930000I100000J0D01*
G01*
X95448000Y-97930000D01*
G75*
G02*
X95548000Y-98030000I0J-100000D01*
G01*
X95548000Y-98230000D01*
G75*
G02*
X95448000Y-98330000I-100000J0D01*
G01*
X94173000Y-98330000D01*
G75*
G02*
X94073000Y-98230000I0J100000D01*
G01*
G37*
%TD.AperFunction*%
%TO.P,U1,7*%
%TO.N,Net-(C2-Pad1)*%
%TA.AperFunction,SMDPad,CuDef*%
G36*
G01*
X94073000Y-97580000D02*
X94073000Y-97380000D01*
G75*
G02*
X94173000Y-97280000I100000J0D01*
G01*
X95448000Y-97280000D01*
G75*
G02*
X95548000Y-97380000I0J-100000D01*
G01*
X95548000Y-97580000D01*
G75*
G02*
X95448000Y-97680000I-100000J0D01*
G01*
X94173000Y-97680000D01*
G75*
G02*
X94073000Y-97580000I0J100000D01*
G01*
G37*
%TD.AperFunction*%
%TO.P,U1,6*%
%TO.N,+5V*%
%TA.AperFunction,SMDPad,CuDef*%
G36*
G01*
X94073000Y-96930000D02*
X94073000Y-96730000D01*
G75*
G02*
X94173000Y-96630000I100000J0D01*
G01*
X95448000Y-96630000D01*
G75*
G02*
X95548000Y-96730000I0J-100000D01*
G01*
X95548000Y-96930000D01*
G75*
G02*
X95448000Y-97030000I-100000J0D01*
G01*
X94173000Y-97030000D01*
G75*
G02*
X94073000Y-96930000I0J100000D01*
G01*
G37*
%TD.AperFunction*%
%TO.P,U1,5*%
%TO.N,Net-(C4-Pad1)*%
%TA.AperFunction,SMDPad,CuDef*%
G36*
G01*
X94073000Y-96280000D02*
X94073000Y-96080000D01*
G75*
G02*
X94173000Y-95980000I100000J0D01*
G01*
X95448000Y-95980000D01*
G75*
G02*
X95548000Y-96080000I0J-100000D01*
G01*
X95548000Y-96280000D01*
G75*
G02*
X95448000Y-96380000I-100000J0D01*
G01*
X94173000Y-96380000D01*
G75*
G02*
X94073000Y-96280000I0J100000D01*
G01*
G37*
%TD.AperFunction*%
%TO.P,U1,4*%
%TO.N,GND*%
%TA.AperFunction,SMDPad,CuDef*%
G36*
G01*
X88348000Y-96280000D02*
X88348000Y-96080000D01*
G75*
G02*
X88448000Y-95980000I100000J0D01*
G01*
X89723000Y-95980000D01*
G75*
G02*
X89823000Y-96080000I0J-100000D01*
G01*
X89823000Y-96280000D01*
G75*
G02*
X89723000Y-96380000I-100000J0D01*
G01*
X88448000Y-96380000D01*
G75*
G02*
X88348000Y-96280000I0J100000D01*
G01*
G37*
%TD.AperFunction*%
%TO.P,U1,3*%
%TO.N,Net-(C1-Pad2)*%
%TA.AperFunction,SMDPad,CuDef*%
G36*
G01*
X88348000Y-96930000D02*
X88348000Y-96730000D01*
G75*
G02*
X88448000Y-96630000I100000J0D01*
G01*
X89723000Y-96630000D01*
G75*
G02*
X89823000Y-96730000I0J-100000D01*
G01*
X89823000Y-96930000D01*
G75*
G02*
X89723000Y-97030000I-100000J0D01*
G01*
X88448000Y-97030000D01*
G75*
G02*
X88348000Y-96930000I0J100000D01*
G01*
G37*
%TD.AperFunction*%
%TO.P,U1,2*%
%TO.N,GND*%
%TA.AperFunction,SMDPad,CuDef*%
G36*
G01*
X88348000Y-97580000D02*
X88348000Y-97380000D01*
G75*
G02*
X88448000Y-97280000I100000J0D01*
G01*
X89723000Y-97280000D01*
G75*
G02*
X89823000Y-97380000I0J-100000D01*
G01*
X89823000Y-97580000D01*
G75*
G02*
X89723000Y-97680000I-100000J0D01*
G01*
X88448000Y-97680000D01*
G75*
G02*
X88348000Y-97580000I0J100000D01*
G01*
G37*
%TD.AperFunction*%
%TO.P,U1,1*%
%TO.N,Net-(C3-Pad1)*%
%TA.AperFunction,SMDPad,CuDef*%
G36*
G01*
X88348000Y-98230000D02*
X88348000Y-98030000D01*
G75*
G02*
X88448000Y-97930000I100000J0D01*
G01*
X89723000Y-97930000D01*
G75*
G02*
X89823000Y-98030000I0J-100000D01*
G01*
X89823000Y-98230000D01*
G75*
G02*
X89723000Y-98330000I-100000J0D01*
G01*
X88448000Y-98330000D01*
G75*
G02*
X88348000Y-98230000I0J100000D01*
G01*
G37*
%TD.AperFunction*%
%TD*%
D13*
%TO.P,RV2,2*%
%TO.N,Net-(R4-Pad2)*%
X83005000Y-92964000D03*
D14*
%TO.P,RV2,3*%
%TO.N,GND*%
X86255000Y-93964000D03*
%TO.P,RV2,1*%
%TO.N,Net-(RV2-Pad1)*%
X86255000Y-91964000D03*
%TD*%
D13*
%TO.P,RV1,2*%
%TO.N,Net-(C1-Pad1)*%
X86106000Y-97155000D03*
D14*
%TO.P,RV1,3*%
%TO.N,GND*%
X82856000Y-96155000D03*
%TO.P,RV1,1*%
%TO.N,Net-(MK1-Pad2)*%
X82856000Y-98155000D03*
%TD*%
%TO.P,R4,2*%
%TO.N,Net-(R4-Pad2)*%
%TA.AperFunction,SMDPad,CuDef*%
G36*
G01*
X79712000Y-91673000D02*
X79712000Y-92223000D01*
G75*
G02*
X79512000Y-92423000I-200000J0D01*
G01*
X79112000Y-92423000D01*
G75*
G02*
X78912000Y-92223000I0J200000D01*
G01*
X78912000Y-91673000D01*
G75*
G02*
X79112000Y-91473000I200000J0D01*
G01*
X79512000Y-91473000D01*
G75*
G02*
X79712000Y-91673000I0J-200000D01*
G01*
G37*
%TD.AperFunction*%
%TO.P,R4,1*%
%TO.N,Net-(R4-Pad1)*%
%TA.AperFunction,SMDPad,CuDef*%
G36*
G01*
X81362000Y-91673000D02*
X81362000Y-92223000D01*
G75*
G02*
X81162000Y-92423000I-200000J0D01*
G01*
X80762000Y-92423000D01*
G75*
G02*
X80562000Y-92223000I0J200000D01*
G01*
X80562000Y-91673000D01*
G75*
G02*
X80762000Y-91473000I200000J0D01*
G01*
X81162000Y-91473000D01*
G75*
G02*
X81362000Y-91673000I0J-200000D01*
G01*
G37*
%TD.AperFunction*%
%TD*%
%TO.P,R2,2*%
%TO.N,GND*%
%TA.AperFunction,SMDPad,CuDef*%
G36*
G01*
X101517000Y-96414000D02*
X101517000Y-95864000D01*
G75*
G02*
X101717000Y-95664000I200000J0D01*
G01*
X102117000Y-95664000D01*
G75*
G02*
X102317000Y-95864000I0J-200000D01*
G01*
X102317000Y-96414000D01*
G75*
G02*
X102117000Y-96614000I-200000J0D01*
G01*
X101717000Y-96614000D01*
G75*
G02*
X101517000Y-96414000I0J200000D01*
G01*
G37*
%TD.AperFunction*%
%TO.P,R2,1*%
%TO.N,Net-(C4-Pad2)*%
%TA.AperFunction,SMDPad,CuDef*%
G36*
G01*
X99867000Y-96414000D02*
X99867000Y-95864000D01*
G75*
G02*
X100067000Y-95664000I200000J0D01*
G01*
X100467000Y-95664000D01*
G75*
G02*
X100667000Y-95864000I0J-200000D01*
G01*
X100667000Y-96414000D01*
G75*
G02*
X100467000Y-96614000I-200000J0D01*
G01*
X100067000Y-96614000D01*
G75*
G02*
X99867000Y-96414000I0J200000D01*
G01*
G37*
%TD.AperFunction*%
%TD*%
%TO.P,R1,2*%
%TO.N,Net-(MK1-Pad2)*%
%TA.AperFunction,SMDPad,CuDef*%
G36*
G01*
X77322000Y-94532000D02*
X77872000Y-94532000D01*
G75*
G02*
X78072000Y-94732000I0J-200000D01*
G01*
X78072000Y-95132000D01*
G75*
G02*
X77872000Y-95332000I-200000J0D01*
G01*
X77322000Y-95332000D01*
G75*
G02*
X77122000Y-95132000I0J200000D01*
G01*
X77122000Y-94732000D01*
G75*
G02*
X77322000Y-94532000I200000J0D01*
G01*
G37*
%TD.AperFunction*%
%TO.P,R1,1*%
%TO.N,+5V*%
%TA.AperFunction,SMDPad,CuDef*%
G36*
G01*
X77322000Y-92882000D02*
X77872000Y-92882000D01*
G75*
G02*
X78072000Y-93082000I0J-200000D01*
G01*
X78072000Y-93482000D01*
G75*
G02*
X77872000Y-93682000I-200000J0D01*
G01*
X77322000Y-93682000D01*
G75*
G02*
X77122000Y-93482000I0J200000D01*
G01*
X77122000Y-93082000D01*
G75*
G02*
X77322000Y-92882000I200000J0D01*
G01*
G37*
%TD.AperFunction*%
%TD*%
D15*
%TO.P,MIC,2*%
%TO.N,Net-(MK1-Pad2)*%
X79915000Y-94889000D03*
%TO.P,MIC,1*%
%TO.N,GND*%
X79915000Y-97389000D03*
%TD*%
D16*
%TO.P,J1,2*%
%TO.N,GND*%
X88392000Y-72263000D03*
D17*
%TO.P,J1,1*%
%TO.N,+5V*%
X90932000Y-72263000D03*
%TD*%
D11*
%TO.P,D1,10*%
%TO.N,+5V*%
X78232000Y-77216000D03*
%TO.P,D1,11*%
%TO.N,Net-(D1-Pad11)*%
X78232000Y-87376000D03*
%TO.P,D1,9*%
%TO.N,+5V*%
X80772000Y-77216000D03*
%TO.P,D1,12*%
%TO.N,Net-(D1-Pad12)*%
X80772000Y-87376000D03*
%TO.P,D1,20*%
%TO.N,Net-(D1-Pad20)*%
X101092000Y-87376000D03*
%TO.P,D1,8*%
%TO.N,+5V*%
X83312000Y-77216000D03*
%TO.P,D1,19*%
%TO.N,Net-(D1-Pad19)*%
X98552000Y-87376000D03*
%TO.P,D1,7*%
%TO.N,+5V*%
X85852000Y-77216000D03*
%TO.P,D1,18*%
%TO.N,Net-(D1-Pad18)*%
X96012000Y-87376000D03*
%TO.P,D1,6*%
%TO.N,+5V*%
X88392000Y-77216000D03*
%TO.P,D1,17*%
%TO.N,Net-(D1-Pad17)*%
X93472000Y-87376000D03*
%TO.P,D1,5*%
%TO.N,+5V*%
X90932000Y-77216000D03*
%TO.P,D1,16*%
%TO.N,Net-(D1-Pad16)*%
X90932000Y-87376000D03*
%TO.P,D1,4*%
%TO.N,+5V*%
X93472000Y-77216000D03*
%TO.P,D1,15*%
%TO.N,Net-(D1-Pad15)*%
X88392000Y-87376000D03*
%TO.P,D1,3*%
%TO.N,+5V*%
X96012000Y-77216000D03*
%TO.P,D1,14*%
%TO.N,Net-(D1-Pad14)*%
X85852000Y-87376000D03*
%TO.P,D1,2*%
%TO.N,+5V*%
X98552000Y-77216000D03*
%TO.P,D1,13*%
%TO.N,Net-(D1-Pad13)*%
X83312000Y-87376000D03*
D12*
%TO.P,D1,1*%
%TO.N,+5V*%
X101092000Y-77216000D03*
%TD*%
%TO.P,C4,2*%
%TO.N,Net-(C4-Pad2)*%
%TA.AperFunction,SMDPad,CuDef*%
G36*
G01*
X98737000Y-96389000D02*
X98737000Y-95889000D01*
G75*
G02*
X98962000Y-95664000I225000J0D01*
G01*
X99412000Y-95664000D01*
G75*
G02*
X99637000Y-95889000I0J-225000D01*
G01*
X99637000Y-96389000D01*
G75*
G02*
X99412000Y-96614000I-225000J0D01*
G01*
X98962000Y-96614000D01*
G75*
G02*
X98737000Y-96389000I0J225000D01*
G01*
G37*
%TD.AperFunction*%
%TO.P,C4,1*%
%TO.N,Net-(C4-Pad1)*%
%TA.AperFunction,SMDPad,CuDef*%
G36*
G01*
X97187000Y-96389000D02*
X97187000Y-95889000D01*
G75*
G02*
X97412000Y-95664000I225000J0D01*
G01*
X97862000Y-95664000D01*
G75*
G02*
X98087000Y-95889000I0J-225000D01*
G01*
X98087000Y-96389000D01*
G75*
G02*
X97862000Y-96614000I-225000J0D01*
G01*
X97412000Y-96614000D01*
G75*
G02*
X97187000Y-96389000I0J225000D01*
G01*
G37*
%TD.AperFunction*%
%TD*%
D18*
%TO.N,Net-(C1-Pad2)*%
X91376500Y-93726000D03*
%TO.N,Net-(C1-Pad1)*%
X86106000Y-96012000D03*
%TO.N,GND*%
X102108000Y-93726000D03*
X84613750Y-94011750D03*
%TO.N,Net-(C2-Pad1)*%
X93535500Y-97472500D03*
%TO.N,Net-(C3-Pad2)*%
X94615000Y-98806000D03*
%TO.N,Net-(C3-Pad1)*%
X87757000Y-98806000D03*
%TO.N,Net-(C4-Pad1)*%
X96879000Y-97685000D03*
%TO.N,/Vsig*%
X102044500Y-98806000D03*
%TD*%
D19*
%TO.N,Net-(C1-Pad2)*%
X89085500Y-96830000D02*
X90368000Y-96830000D01*
X91376500Y-95821500D02*
X91376500Y-93726000D01*
X90368000Y-96830000D02*
X91376500Y-95821500D01*
%TO.N,Net-(C1-Pad1)*%
X86106000Y-97155000D02*
X86106000Y-96139000D01*
X86106000Y-97155000D02*
X86106000Y-96012000D01*
%TO.N,GND*%
X89085500Y-96180000D02*
X88033500Y-96180000D01*
X88018500Y-97480000D02*
X89085500Y-97480000D01*
X87820500Y-97282000D02*
X88018500Y-97480000D01*
X102108000Y-94488000D02*
X102108000Y-93726000D01*
X102108000Y-94805500D02*
X102108000Y-94488000D01*
X101917000Y-94996500D02*
X102108000Y-94805500D01*
X101917000Y-96139000D02*
X101917000Y-94996500D01*
X100965000Y-100406500D02*
X99872500Y-100406500D01*
X102752501Y-99367999D02*
X102752501Y-97926501D01*
X101714000Y-100406500D02*
X102752501Y-99367999D01*
X100965000Y-100406500D02*
X101714000Y-100406500D01*
X101917000Y-97091000D02*
X101917000Y-96139000D01*
X102752501Y-97926501D02*
X101917000Y-97091000D01*
X86255000Y-93964000D02*
X84915500Y-93964000D01*
X87820500Y-96393000D02*
X87820500Y-96710500D01*
X87820500Y-96710500D02*
X87820500Y-97282000D01*
X87296500Y-93964000D02*
X86255000Y-93964000D01*
X87820500Y-94488000D02*
X87296500Y-93964000D01*
X87843000Y-96180000D02*
X87820500Y-96202500D01*
X89085500Y-96180000D02*
X87843000Y-96180000D01*
X87820500Y-96202500D02*
X87820500Y-94488000D01*
X87820500Y-96710500D02*
X87820500Y-96202500D01*
X84661500Y-93964000D02*
X84613750Y-94011750D01*
X86255000Y-93964000D02*
X84661500Y-93964000D01*
X84613750Y-95535750D02*
X84613750Y-94011750D01*
X84613750Y-95027750D02*
X84613750Y-95535750D01*
X84613750Y-95535750D02*
X84613750Y-95789750D01*
X99364000Y-100406500D02*
X99314000Y-100456500D01*
X100965000Y-100406500D02*
X99364000Y-100406500D01*
X99314000Y-100456500D02*
X86232500Y-100456500D01*
X86232500Y-100456500D02*
X84613750Y-98837750D01*
X83804000Y-96155000D02*
X84502500Y-96155000D01*
X84613750Y-96043750D02*
X84613750Y-95535750D01*
X84613750Y-98837750D02*
X84613750Y-96043750D01*
X82856000Y-96155000D02*
X83804000Y-96155000D01*
X84502500Y-96155000D02*
X84613750Y-96043750D01*
X83804000Y-96155000D02*
X84248500Y-96155000D01*
X89804999Y-88534999D02*
X90932000Y-89662000D01*
X90932000Y-89662000D02*
X89662000Y-88392000D01*
X88392000Y-72263000D02*
X87122000Y-73533000D01*
X87122000Y-78232000D02*
X89662000Y-80772000D01*
X87122000Y-73533000D02*
X87122000Y-78232000D01*
X89662000Y-88392000D02*
X89662000Y-80772000D01*
%TO.N,Net-(C2-Pad1)*%
X93797000Y-97480000D02*
X94810500Y-97480000D01*
X93599000Y-97282000D02*
X93797000Y-97480000D01*
%TO.N,Net-(C3-Pad2)*%
X93685000Y-98130000D02*
X94810500Y-98130000D01*
X93472000Y-98343000D02*
X93685000Y-98130000D01*
X93472000Y-98615500D02*
X93472000Y-98343000D01*
X93662500Y-98806000D02*
X93472000Y-98615500D01*
X94615000Y-98806000D02*
X93662500Y-98806000D01*
%TO.N,Net-(C3-Pad1)*%
X89085500Y-98130000D02*
X88052000Y-98130000D01*
X87757000Y-98425000D02*
X87757000Y-98806000D01*
X88052000Y-98130000D02*
X87757000Y-98425000D01*
%TO.N,Net-(C4-Pad2)*%
X99187000Y-96139000D02*
X100267000Y-96139000D01*
%TO.N,Net-(C4-Pad1)*%
X94851500Y-96139000D02*
X94810500Y-96180000D01*
X97637000Y-96139000D02*
X97637000Y-96936501D01*
X96171000Y-95980000D02*
X96029001Y-96121999D01*
X97478000Y-95980000D02*
X96171000Y-95980000D01*
X97637000Y-96139000D02*
X97478000Y-95980000D01*
X97627499Y-96936501D02*
X96879000Y-97685000D01*
X97637000Y-96936501D02*
X97627499Y-96936501D01*
D20*
X95971000Y-96180000D02*
X96029001Y-96121999D01*
X94810500Y-96180000D02*
X95971000Y-96180000D01*
D19*
%TO.N,/Vsig*%
X100951500Y-98870000D02*
X100965000Y-98856500D01*
X102057500Y-98856500D02*
X102108000Y-98806000D01*
X100965000Y-98856500D02*
X102057500Y-98856500D01*
X93728435Y-99514001D02*
X92646500Y-98432066D01*
X92646500Y-93916500D02*
X88392000Y-89662000D01*
X100915000Y-98806500D02*
X100965000Y-98856500D01*
X99364000Y-98856500D02*
X99314000Y-98806500D01*
X100965000Y-98856500D02*
X99364000Y-98856500D01*
X92646500Y-98432067D02*
X92646500Y-94869000D01*
X93728434Y-99514001D02*
X92646500Y-98432067D01*
X92646500Y-94869000D02*
X92646500Y-93916500D01*
X92646500Y-98432066D02*
X92646500Y-94869000D01*
X97218000Y-98806500D02*
X96510499Y-99514001D01*
X99314000Y-98806500D02*
X97218000Y-98806500D01*
X96510499Y-99514001D02*
X93728434Y-99514001D01*
%TO.N,+5V*%
X78232000Y-90932000D02*
X78232000Y-89662000D01*
X78232000Y-91567000D02*
X78232000Y-90932000D01*
X77597000Y-92202000D02*
X78232000Y-91567000D01*
X77597000Y-93282000D02*
X77597000Y-92202000D01*
X77104999Y-88534999D02*
X78232000Y-89662000D01*
X77104999Y-78343001D02*
X77104999Y-88534999D01*
X78232000Y-77216000D02*
X77104999Y-78343001D01*
X93472000Y-96229000D02*
X93472000Y-89662000D01*
X94073000Y-96830000D02*
X93472000Y-96229000D01*
X94810500Y-96830000D02*
X94073000Y-96830000D01*
%TO.N,Net-(D1-Pad11)*%
X78232000Y-87376000D02*
X78232000Y-82042000D01*
%TO.N,Net-(D1-Pad12)*%
X80772000Y-82042000D02*
X80772000Y-87376000D01*
%TO.N,Net-(D1-Pad20)*%
X101092000Y-87376000D02*
X101092000Y-88773000D01*
X100203000Y-89662000D02*
X98552000Y-89662000D01*
X101092000Y-88773000D02*
X100203000Y-89662000D01*
%TO.N,Net-(D1-Pad19)*%
X98552000Y-87376000D02*
X98552000Y-82042000D01*
%TO.N,Net-(D1-Pad18)*%
X96012000Y-82042000D02*
X96012000Y-87376000D01*
%TO.N,Net-(D1-Pad17)*%
X93472000Y-87376000D02*
X93472000Y-82042000D01*
%TO.N,Net-(D1-Pad16)*%
X90932000Y-87376000D02*
X90932000Y-82042000D01*
%TO.N,Net-(D1-Pad15)*%
X88392000Y-87376000D02*
X88392000Y-82042000D01*
%TO.N,Net-(D1-Pad14)*%
X85852000Y-87376000D02*
X85852000Y-82042000D01*
%TO.N,Net-(D1-Pad13)*%
X83312000Y-87376000D02*
X83312000Y-82042000D01*
%TO.N,Net-(MK1-Pad2)*%
X79872000Y-94932000D02*
X79915000Y-94889000D01*
X77597000Y-94932000D02*
X79872000Y-94932000D01*
X82856000Y-98155000D02*
X82026000Y-98155000D01*
X82026000Y-98155000D02*
X81534000Y-97663000D01*
X81534000Y-97663000D02*
X81534000Y-95377000D01*
X81534000Y-95377000D02*
X81026000Y-94869000D01*
X79935000Y-94869000D02*
X79915000Y-94889000D01*
X81026000Y-94869000D02*
X79935000Y-94869000D01*
%TO.N,Net-(R4-Pad2)*%
X83005000Y-92964000D02*
X79883000Y-92964000D01*
X79312000Y-91948000D02*
X79312000Y-92647000D01*
X79629000Y-92964000D02*
X79883000Y-92964000D01*
X79312000Y-92647000D02*
X79629000Y-92964000D01*
%TO.N,Net-(R4-Pad1)*%
X80962000Y-91948000D02*
X81788000Y-91948000D01*
X82105500Y-90868500D02*
X82105500Y-91630500D01*
X83312000Y-89662000D02*
X82105500Y-90868500D01*
X81788000Y-91948000D02*
X82105500Y-91630500D01*
X83312000Y-89662000D02*
X85852000Y-89662000D01*
%TD*%
M02*
